name Run_20002_GRF.mot
datacolumns 19
datarows 15
range 2.333 2.347
endheader
time	     ground_force_vx	     ground_force_vy	     ground_force_vz	     ground_force_px	     ground_force_py	     ground_force_pz	   l_ground_force_vx	   l_ground_force_vy	   l_ground_force_vz	   l_ground_force_px	   l_ground_force_py	   l_ground_force_pz	     ground_torque_x	     ground_torque_y	     ground_torque_z	   l_ground_torque_x	   l_ground_torque_y	   l_ground_torque_z	
2.333	          0.00000000	          0.00000000	          0.00000000	          0.00000000	          0.00000000	          0.00000000	         55.66043500	       1112.39746100	         24.56269500	          0.92810000	          0.00000000	         -0.39705500	          0.00000000	          0.00000000	          0.00000000	          0.00000000	          4.97738900	          0.00000000	
2.334	          0.00000000	          0.00000000	          0.00000000	          0.00000000	          0.00000000	          0.00000000	         57.22638300	       1101.49597200	         23.54707100	          0.92655700	          0.00000000	         -0.39691500	          0.00000000	          0.00000000	          0.00000000	          0.00000000	          5.13751700	          0.00000000	
2.335	          0.00000000	          0.00000000	          0.00000000	          0.00000000	          0.00000000	          0.00000000	         58.78564500	       1090.56787100	         22.54274000	          0.92500100	          0.00000000	         -0.39677200	          0.00000000	          0.00000000	          0.00000000	          0.00000000	          5.29444700	          0.00000000	
2.336	          0.00000000	          0.00000000	          0.00000000	          0.00000000	          0.00000000	          0.00000000	         60.33298500	       1079.61450200	         21.55260700	          0.92343400	          0.00000000	         -0.39662400	          0.00000000	          0.00000000	          0.00000000	          0.00000000	          5.44788600	          0.00000000	
2.337	          0.00000000	          0.00000000	          0.00000000	          0.00000000	          0.00000000	          0.00000000	         61.86283100	       1068.63745100	         20.57935300	          0.92185900	          0.00000000	         -0.39647300	          0.00000000	          0.00000000	          0.00000000	          0.00000000	          5.59754500	          0.00000000	
2.338	          0.00000000	          0.00000000	          0.00000000	          0.00000000	          0.00000000	          0.00000000	         63.36949900	       1057.63720700	         19.62543100	          0.92027700	          0.00000000	         -0.39631900	          0.00000000	          0.00000000	          0.00000000	          0.00000000	          5.74314800	          0.00000000	
2.339	          0.00000000	          0.00000000	          0.00000000	          0.00000000	          0.00000000	          0.00000000	         64.84739700	       1046.61450200	         18.69302000	          0.91869300	          0.00000000	         -0.39616200	          0.00000000	          0.00000000	          0.00000000	          0.00000000	          5.88442900	          0.00000000	
2.34	          0.00000000	          0.00000000	          0.00000000	          0.00000000	          0.00000000	          0.00000000	         66.29126700	       1035.56970200	         17.78402900	          0.91710900	          0.00000000	         -0.39600200	          0.00000000	          0.00000000	          0.00000000	          0.00000000	          6.02113300	          0.00000000	
2.341	          0.00000000	          0.00000000	          0.00000000	          0.00000000	          0.00000000	          0.00000000	         67.69637300	       1024.50280800	         16.90007400	          0.91552800	          0.00000000	         -0.39583900	          0.00000000	          0.00000000	          0.00000000	          0.00000000	          6.15301800	          0.00000000	
2.342	          0.00000000	          0.00000000	          0.00000000	          0.00000000	          0.00000000	          0.00000000	         69.05874600	       1013.41430700	         16.04247100	          0.91395100	          0.00000000	         -0.39567500	          0.00000000	          0.00000000	          0.00000000	          0.00000000	          6.27985500	          0.00000000	
2.343	          0.00000000	          0.00000000	          0.00000000	          0.00000000	          0.00000000	          0.00000000	         70.37528200	       1002.30426000	         15.21224600	          0.91238100	          0.00000000	         -0.39550900	          0.00000000	          0.00000000	          0.00000000	          0.00000000	          6.40142900	          0.00000000	
2.344	          0.00000000	          0.00000000	          0.00000000	          0.00000000	          0.00000000	          0.00000000	         71.64389800	        991.17334000	         14.41012100	          0.91081900	          0.00000000	         -0.39534200	          0.00000000	          0.00000000	          0.00000000	          0.00000000	          6.51754000	          0.00000000	
2.345	          0.00000000	          0.00000000	          0.00000000	          0.00000000	          0.00000000	          0.00000000	         72.86351000	        980.02221700	         13.63654100	          0.90926800	          0.00000000	         -0.39517400	          0.00000000	          0.00000000	          0.00000000	          0.00000000	          6.62800200	          0.00000000	
2.346	          0.00000000	          0.00000000	          0.00000000	          0.00000000	          0.00000000	          0.00000000	         74.03407300	        968.85192900	         12.89167600	          0.90772700	          0.00000000	         -0.39500600	          0.00000000	          0.00000000	          0.00000000	          0.00000000	          6.73264600	          0.00000000	
2.347	          0.00000000	          0.00000000	          0.00000000	          0.00000000	          0.00000000	          0.00000000	         75.15646400	        957.66394000	         12.17544700	          0.90619600	          0.00000000	         -0.39483900	          0.00000000	          0.00000000	          0.00000000	          0.00000000	          6.83131900	          0.00000000	
